<svg id="visual" viewBox="0 0 960 300" width="960" height="300" xmlns="http://www.w3.org/2000/svg" xmlns:xlink="http://www.w3.org/1999/xlink" version="1.1"><rect x="0" y="0" width="960" height="300" fill="#172447"></rect><path d="M0 112L7 113.8C14 115.7 28 119.3 41.8 120C55.7 120.7 69.3 118.3 83.2 121.7C97 125 111 134 125 133.3C139 132.7 153 122.3 167 113.3C181 104.3 195 96.7 208.8 90C222.7 83.3 236.3 77.7 250.2 80.7C264 83.7 278 95.3 292 94.5C306 93.7 320 80.3 334 85.7C348 91 362 115 375.8 126.8C389.7 138.7 403.3 138.3 417.2 135.5C431 132.7 445 127.3 459 118.2C473 109 487 96 501 97C515 98 529 113 542.8 122.7C556.7 132.3 570.3 136.7 584.2 143.8C598 151 612 161 626 166.5C640 172 654 173 668 157.7C682 142.3 696 110.7 709.8 92.8C723.7 75 737.3 71 751.2 82.2C765 93.3 779 119.7 793 128.8C807 138 821 130 835 126C849 122 863 122 876.8 114.5C890.7 107 904.3 92 918.2 82C932 72 946 67 953 64.5L960 62L960 301L953 301C946 301 932 301 918.2 301C904.3 301 890.7 301 876.8 301C863 301 849 301 835 301C821 301 807 301 793 301C779 301 765 301 751.2 301C737.3 301 723.7 301 709.8 301C696 301 682 301 668 301C654 301 640 301 626 301C612 301 598 301 584.2 301C570.3 301 556.7 301 542.8 301C529 301 515 301 501 301C487 301 473 301 459 301C445 301 431 301 417.2 301C403.3 301 389.7 301 375.8 301C362 301 348 301 334 301C320 301 306 301 292 301C278 301 264 301 250.2 301C236.3 301 222.7 301 208.8 301C195 301 181 301 167 301C153 301 139 301 125 301C111 301 97 301 83.2 301C69.3 301 55.7 301 41.8 301C28 301 14 301 7 301L0 301Z" fill="#001220"></path><path d="M0 165L7 164.7C14 164.3 28 163.7 41.8 154.3C55.7 145 69.3 127 83.2 117.8C97 108.7 111 108.3 125 107.2C139 106 153 104 167 99.7C181 95.3 195 88.7 208.8 102.3C222.7 116 236.3 150 250.2 152C264 154 278 124 292 120.2C306 116.3 320 138.7 334 146.8C348 155 362 149 375.8 143.8C389.7 138.7 403.3 134.3 417.2 142.5C431 150.7 445 171.3 459 176.5C473 181.7 487 171.3 501 163.8C515 156.3 529 151.7 542.8 140.3C556.7 129 570.3 111 584.2 103.5C598 96 612 99 626 115.5C640 132 654 162 668 166C682 170 696 148 709.8 142C723.7 136 737.3 146 751.2 141.7C765 137.3 779 118.7 793 114.5C807 110.3 821 120.7 835 122.7C849 124.7 863 118.3 876.8 117.3C890.7 116.3 904.3 120.7 918.2 119.5C932 118.3 946 111.7 953 108.3L960 105L960 301L953 301C946 301 932 301 918.2 301C904.3 301 890.7 301 876.8 301C863 301 849 301 835 301C821 301 807 301 793 301C779 301 765 301 751.2 301C737.3 301 723.7 301 709.8 301C696 301 682 301 668 301C654 301 640 301 626 301C612 301 598 301 584.2 301C570.3 301 556.7 301 542.8 301C529 301 515 301 501 301C487 301 473 301 459 301C445 301 431 301 417.2 301C403.3 301 389.7 301 375.8 301C362 301 348 301 334 301C320 301 306 301 292 301C278 301 264 301 250.2 301C236.3 301 222.7 301 208.8 301C195 301 181 301 167 301C153 301 139 301 125 301C111 301 97 301 83.2 301C69.3 301 55.7 301 41.8 301C28 301 14 301 7 301L0 301Z" fill="#031b32"></path><path d="M0 204L7 203.2C14 202.3 28 200.7 41.8 200.5C55.7 200.3 69.3 201.7 83.2 201.7C97 201.7 111 200.3 125 183C139 165.7 153 132.3 167 119.7C181 107 195 115 208.8 131C222.7 147 236.3 171 250.2 179.3C264 187.7 278 180.3 292 178.7C306 177 320 181 334 174.5C348 168 362 151 375.8 151C389.7 151 403.3 168 417.2 178C431 188 445 191 459 187.2C473 183.3 487 172.7 501 168.8C515 165 529 168 542.8 160C556.7 152 570.3 133 584.2 131.2C598 129.3 612 144.7 626 157.8C640 171 654 182 668 182.3C682 182.7 696 172.3 709.8 164.2C723.7 156 737.3 150 751.2 156C765 162 779 180 793 184.5C807 189 821 180 835 179.5C849 179 863 187 876.8 190.7C890.7 194.3 904.3 193.7 918.2 179.3C932 165 946 137 953 123L960 109L960 301L953 301C946 301 932 301 918.2 301C904.3 301 890.7 301 876.8 301C863 301 849 301 835 301C821 301 807 301 793 301C779 301 765 301 751.2 301C737.3 301 723.7 301 709.8 301C696 301 682 301 668 301C654 301 640 301 626 301C612 301 598 301 584.2 301C570.3 301 556.7 301 542.8 301C529 301 515 301 501 301C487 301 473 301 459 301C445 301 431 301 417.2 301C403.3 301 389.7 301 375.8 301C362 301 348 301 334 301C320 301 306 301 292 301C278 301 264 301 250.2 301C236.3 301 222.7 301 208.8 301C195 301 181 301 167 301C153 301 139 301 125 301C111 301 97 301 83.2 301C69.3 301 55.7 301 41.8 301C28 301 14 301 7 301L0 301Z" fill="#0d2345"></path><path d="M0 147L7 143.7C14 140.3 28 133.7 41.8 141.8C55.7 150 69.3 173 83.2 186.8C97 200.7 111 205.3 125 195.3C139 185.3 153 160.7 167 155.5C181 150.3 195 164.7 208.8 173C222.7 181.3 236.3 183.7 250.2 183.5C264 183.3 278 180.7 292 173.8C306 167 320 156 334 157.7C348 159.3 362 173.7 375.8 179.5C389.7 185.3 403.3 182.7 417.2 173.2C431 163.7 445 147.3 459 144.5C473 141.7 487 152.3 501 164.3C515 176.3 529 189.7 542.8 185.3C556.7 181 570.3 159 584.2 146.2C598 133.3 612 129.7 626 132C640 134.3 654 142.7 668 149.7C682 156.7 696 162.3 709.8 170.3C723.7 178.3 737.3 188.7 751.2 181C765 173.3 779 147.7 793 135C807 122.3 821 122.7 835 133C849 143.3 863 163.7 876.8 177.2C890.7 190.7 904.3 197.3 918.2 200C932 202.7 946 201.3 953 200.7L960 200L960 301L953 301C946 301 932 301 918.2 301C904.3 301 890.7 301 876.8 301C863 301 849 301 835 301C821 301 807 301 793 301C779 301 765 301 751.2 301C737.3 301 723.7 301 709.8 301C696 301 682 301 668 301C654 301 640 301 626 301C612 301 598 301 584.2 301C570.3 301 556.7 301 542.8 301C529 301 515 301 501 301C487 301 473 301 459 301C445 301 431 301 417.2 301C403.3 301 389.7 301 375.8 301C362 301 348 301 334 301C320 301 306 301 292 301C278 301 264 301 250.2 301C236.3 301 222.7 301 208.8 301C195 301 181 301 167 301C153 301 139 301 125 301C111 301 97 301 83.2 301C69.3 301 55.7 301 41.8 301C28 301 14 301 7 301L0 301Z" fill="#212957"></path><path d="M0 210L7 208.3C14 206.7 28 203.3 41.8 192C55.7 180.7 69.3 161.3 83.2 164.7C97 168 111 194 125 197.3C139 200.7 153 181.3 167 168C181 154.7 195 147.3 208.8 154.3C222.7 161.3 236.3 182.7 250.2 190C264 197.3 278 190.7 292 189.3C306 188 320 192 334 197.2C348 202.3 362 208.7 375.8 205.8C389.7 203 403.3 191 417.2 179.5C431 168 445 157 459 154C473 151 487 156 501 161.7C515 167.3 529 173.7 542.8 174.5C556.7 175.3 570.3 170.7 584.2 171.8C598 173 612 180 626 179.2C640 178.3 654 169.7 668 168.7C682 167.7 696 174.3 709.8 176.8C723.7 179.3 737.3 177.7 751.2 181.3C765 185 779 194 793 192.2C807 190.3 821 177.7 835 168.2C849 158.7 863 152.3 876.8 153.3C890.7 154.3 904.3 162.7 918.2 172.2C932 181.7 946 192.3 953 197.7L960 203L960 301L953 301C946 301 932 301 918.2 301C904.3 301 890.7 301 876.8 301C863 301 849 301 835 301C821 301 807 301 793 301C779 301 765 301 751.2 301C737.3 301 723.7 301 709.8 301C696 301 682 301 668 301C654 301 640 301 626 301C612 301 598 301 584.2 301C570.3 301 556.7 301 542.8 301C529 301 515 301 501 301C487 301 473 301 459 301C445 301 431 301 417.2 301C403.3 301 389.7 301 375.8 301C362 301 348 301 334 301C320 301 306 301 292 301C278 301 264 301 250.2 301C236.3 301 222.7 301 208.8 301C195 301 181 301 167 301C153 301 139 301 125 301C111 301 97 301 83.2 301C69.3 301 55.7 301 41.8 301C28 301 14 301 7 301L0 301Z" fill="#392e66"></path><path d="M0 182L7 188.2C14 194.3 28 206.7 41.8 208.3C55.7 210 69.3 201 83.2 193.2C97 185.3 111 178.7 125 176.8C139 175 153 178 167 185C181 192 195 203 208.8 205C222.7 207 236.3 200 250.2 198.2C264 196.3 278 199.7 292 197.2C306 194.7 320 186.3 334 187C348 187.7 362 197.3 375.8 206.3C389.7 215.3 403.3 223.7 417.2 216.3C431 209 445 186 459 179.3C473 172.7 487 182.3 501 188.3C515 194.3 529 196.7 542.8 192.8C556.7 189 570.3 179 584.2 172.7C598 166.3 612 163.7 626 171.8C640 180 654 199 668 207C682 215 696 212 709.8 211.3C723.7 210.7 737.3 212.3 751.2 215.3C765 218.3 779 222.7 793 221.5C807 220.3 821 213.7 835 204.5C849 195.3 863 183.7 876.8 181.3C890.7 179 904.3 186 918.2 191C932 196 946 199 953 200.5L960 202L960 301L953 301C946 301 932 301 918.2 301C904.3 301 890.7 301 876.8 301C863 301 849 301 835 301C821 301 807 301 793 301C779 301 765 301 751.2 301C737.3 301 723.7 301 709.8 301C696 301 682 301 668 301C654 301 640 301 626 301C612 301 598 301 584.2 301C570.3 301 556.7 301 542.8 301C529 301 515 301 501 301C487 301 473 301 459 301C445 301 431 301 417.2 301C403.3 301 389.7 301 375.8 301C362 301 348 301 334 301C320 301 306 301 292 301C278 301 264 301 250.2 301C236.3 301 222.7 301 208.8 301C195 301 181 301 167 301C153 301 139 301 125 301C111 301 97 301 83.2 301C69.3 301 55.7 301 41.8 301C28 301 14 301 7 301L0 301Z" fill="#543073"></path><path d="M0 192L7 195.5C14 199 28 206 41.8 212.3C55.7 218.7 69.3 224.3 83.2 227.5C97 230.7 111 231.3 125 223.7C139 216 153 200 167 196C181 192 195 200 208.8 205.2C222.7 210.3 236.3 212.7 250.2 214.8C264 217 278 219 292 215.8C306 212.7 320 204.3 334 198.7C348 193 362 190 375.8 190.8C389.7 191.7 403.3 196.3 417.2 194.7C431 193 445 185 459 180.5C473 176 487 175 501 183.7C515 192.3 529 210.7 542.8 214.5C556.7 218.3 570.3 207.7 584.2 208.3C598 209 612 221 626 228.3C640 235.7 654 238.3 668 231.2C682 224 696 207 709.8 196C723.7 185 737.3 180 751.2 181.7C765 183.3 779 191.7 793 199.7C807 207.7 821 215.3 835 220C849 224.7 863 226.3 876.8 218.8C890.7 211.3 904.3 194.7 918.2 192C932 189.3 946 200.7 953 206.3L960 212L960 301L953 301C946 301 932 301 918.2 301C904.3 301 890.7 301 876.8 301C863 301 849 301 835 301C821 301 807 301 793 301C779 301 765 301 751.2 301C737.3 301 723.7 301 709.8 301C696 301 682 301 668 301C654 301 640 301 626 301C612 301 598 301 584.2 301C570.3 301 556.7 301 542.8 301C529 301 515 301 501 301C487 301 473 301 459 301C445 301 431 301 417.2 301C403.3 301 389.7 301 375.8 301C362 301 348 301 334 301C320 301 306 301 292 301C278 301 264 301 250.2 301C236.3 301 222.7 301 208.8 301C195 301 181 301 167 301C153 301 139 301 125 301C111 301 97 301 83.2 301C69.3 301 55.7 301 41.8 301C28 301 14 301 7 301L0 301Z" fill="#712f7c"></path><path d="M0 204L7 204C14 204 28 204 41.8 201.8C55.7 199.7 69.3 195.3 83.2 194.5C97 193.7 111 196.3 125 199.7C139 203 153 207 167 214.5C181 222 195 233 208.8 233.7C222.7 234.3 236.3 224.7 250.2 216.2C264 207.7 278 200.3 292 203.2C306 206 320 219 334 220.2C348 221.3 362 210.7 375.8 212C389.7 213.3 403.3 226.7 417.2 227.2C431 227.7 445 215.3 459 211.8C473 208.3 487 213.7 501 221C515 228.3 529 237.7 542.8 242.3C556.7 247 570.3 247 584.2 239.2C598 231.3 612 215.7 626 207.5C640 199.3 654 198.7 668 201.5C682 204.3 696 210.7 709.8 216.3C723.7 222 737.3 227 751.2 229.8C765 232.7 779 233.3 793 229.3C807 225.3 821 216.7 835 210.3C849 204 863 200 876.8 198.2C890.7 196.3 904.3 196.7 918.2 198.5C932 200.3 946 203.7 953 205.3L960 207L960 301L953 301C946 301 932 301 918.2 301C904.3 301 890.7 301 876.8 301C863 301 849 301 835 301C821 301 807 301 793 301C779 301 765 301 751.2 301C737.3 301 723.7 301 709.8 301C696 301 682 301 668 301C654 301 640 301 626 301C612 301 598 301 584.2 301C570.3 301 556.7 301 542.8 301C529 301 515 301 501 301C487 301 473 301 459 301C445 301 431 301 417.2 301C403.3 301 389.7 301 375.8 301C362 301 348 301 334 301C320 301 306 301 292 301C278 301 264 301 250.2 301C236.3 301 222.7 301 208.8 301C195 301 181 301 167 301C153 301 139 301 125 301C111 301 97 301 83.2 301C69.3 301 55.7 301 41.8 301C28 301 14 301 7 301L0 301Z" fill="#8f2b81"></path><path d="M0 218L7 224.3C14 230.7 28 243.3 41.8 246C55.7 248.7 69.3 241.3 83.2 235.3C97 229.3 111 224.7 125 224C139 223.3 153 226.7 167 228.2C181 229.7 195 229.3 208.8 230.7C222.7 232 236.3 235 250.2 234.8C264 234.7 278 231.3 292 229.2C306 227 320 226 334 223.7C348 221.3 362 217.7 375.8 217.5C389.7 217.3 403.3 220.7 417.2 227C431 233.3 445 242.7 459 244.8C473 247 487 242 501 240C515 238 529 239 542.8 240.2C556.7 241.3 570.3 242.7 584.2 242C598 241.3 612 238.7 626 238C640 237.3 654 238.7 668 236C682 233.3 696 226.7 709.8 228.2C723.7 229.7 737.3 239.3 751.2 238.3C765 237.3 779 225.7 793 223.5C807 221.3 821 228.7 835 228.7C849 228.7 863 221.3 876.8 219.2C890.7 217 904.3 220 918.2 224.8C932 229.7 946 236.3 953 239.7L960 243L960 301L953 301C946 301 932 301 918.2 301C904.3 301 890.7 301 876.8 301C863 301 849 301 835 301C821 301 807 301 793 301C779 301 765 301 751.2 301C737.3 301 723.7 301 709.8 301C696 301 682 301 668 301C654 301 640 301 626 301C612 301 598 301 584.2 301C570.3 301 556.7 301 542.8 301C529 301 515 301 501 301C487 301 473 301 459 301C445 301 431 301 417.2 301C403.3 301 389.7 301 375.8 301C362 301 348 301 334 301C320 301 306 301 292 301C278 301 264 301 250.2 301C236.3 301 222.7 301 208.8 301C195 301 181 301 167 301C153 301 139 301 125 301C111 301 97 301 83.2 301C69.3 301 55.7 301 41.8 301C28 301 14 301 7 301L0 301Z" fill="#ae2381"></path><path d="M0 241L7 239C14 237 28 233 41.8 231.2C55.7 229.3 69.3 229.7 83.2 235C97 240.3 111 250.7 125 253.8C139 257 153 253 167 250.2C181 247.3 195 245.7 208.8 247.2C222.7 248.7 236.3 253.3 250.2 253C264 252.7 278 247.3 292 248C306 248.7 320 255.3 334 258.3C348 261.3 362 260.7 375.8 257.3C389.7 254 403.3 248 417.2 249.2C431 250.3 445 258.7 459 262C473 265.3 487 263.7 501 257.5C515 251.3 529 240.7 542.8 239C556.7 237.3 570.3 244.7 584.2 248.7C598 252.7 612 253.3 626 251.3C640 249.3 654 244.7 668 243.3C682 242 696 244 709.8 246.7C723.7 249.3 737.3 252.7 751.2 253.3C765 254 779 252 793 251.2C807 250.3 821 250.7 835 253.7C849 256.7 863 262.3 876.8 263.3C890.7 264.3 904.3 260.7 918.2 255.3C932 250 946 243 953 239.5L960 236L960 301L953 301C946 301 932 301 918.2 301C904.3 301 890.7 301 876.8 301C863 301 849 301 835 301C821 301 807 301 793 301C779 301 765 301 751.2 301C737.3 301 723.7 301 709.8 301C696 301 682 301 668 301C654 301 640 301 626 301C612 301 598 301 584.2 301C570.3 301 556.7 301 542.8 301C529 301 515 301 501 301C487 301 473 301 459 301C445 301 431 301 417.2 301C403.3 301 389.7 301 375.8 301C362 301 348 301 334 301C320 301 306 301 292 301C278 301 264 301 250.2 301C236.3 301 222.7 301 208.8 301C195 301 181 301 167 301C153 301 139 301 125 301C111 301 97 301 83.2 301C69.3 301 55.7 301 41.8 301C28 301 14 301 7 301L0 301Z" fill="#cb167c"></path><path d="M0 255L7 256C14 257 28 259 41.8 259.5C55.7 260 69.3 259 83.2 258C97 257 111 256 125 257.3C139 258.7 153 262.3 167 263C181 263.7 195 261.3 208.8 262.5C222.7 263.7 236.3 268.3 250.2 268.7C264 269 278 265 292 263.5C306 262 320 263 334 265C348 267 362 270 375.8 270.5C389.7 271 403.3 269 417.2 267.3C431 265.7 445 264.3 459 265.7C473 267 487 271 501 272.8C515 274.7 529 274.3 542.8 274.5C556.7 274.7 570.3 275.3 584.2 274.2C598 273 612 270 626 267C640 264 654 261 668 260C682 259 696 260 709.8 261.5C723.7 263 737.3 265 751.2 263.7C765 262.3 779 257.7 793 255C807 252.3 821 251.7 835 251.2C849 250.7 863 250.3 876.8 249.7C890.7 249 904.3 248 918.2 250.7C932 253.3 946 259.7 953 262.8L960 266L960 301L953 301C946 301 932 301 918.2 301C904.3 301 890.7 301 876.8 301C863 301 849 301 835 301C821 301 807 301 793 301C779 301 765 301 751.2 301C737.3 301 723.7 301 709.8 301C696 301 682 301 668 301C654 301 640 301 626 301C612 301 598 301 584.2 301C570.3 301 556.7 301 542.8 301C529 301 515 301 501 301C487 301 473 301 459 301C445 301 431 301 417.2 301C403.3 301 389.7 301 375.8 301C362 301 348 301 334 301C320 301 306 301 292 301C278 301 264 301 250.2 301C236.3 301 222.7 301 208.8 301C195 301 181 301 167 301C153 301 139 301 125 301C111 301 97 301 83.2 301C69.3 301 55.7 301 41.8 301C28 301 14 301 7 301L0 301Z" fill="#e70373"></path><path d="M0 276L7 277C14 278 28 280 41.8 281.5C55.7 283 69.3 284 83.2 282.3C97 280.7 111 276.3 125 276.2C139 276 153 280 167 280C181 280 195 276 208.8 273C222.7 270 236.3 268 250.2 266.7C264 265.3 278 264.7 292 266.2C306 267.7 320 271.3 334 274.5C348 277.7 362 280.3 375.8 278.7C389.7 277 403.3 271 417.2 268.5C431 266 445 267 459 269.2C473 271.3 487 274.7 501 274.8C515 275 529 272 542.8 272.7C556.7 273.3 570.3 277.7 584.2 280C598 282.3 612 282.7 626 281.3C640 280 654 277 668 277.2C682 277.3 696 280.7 709.8 281.8C723.7 283 737.3 282 751.2 281.5C765 281 779 281 793 278.8C807 276.7 821 272.3 835 270.3C849 268.3 863 268.7 876.8 270.8C890.7 273 904.3 277 918.2 276.8C932 276.7 946 272.3 953 270.2L960 268L960 301L953 301C946 301 932 301 918.2 301C904.3 301 890.7 301 876.8 301C863 301 849 301 835 301C821 301 807 301 793 301C779 301 765 301 751.2 301C737.3 301 723.7 301 709.8 301C696 301 682 301 668 301C654 301 640 301 626 301C612 301 598 301 584.2 301C570.3 301 556.7 301 542.8 301C529 301 515 301 501 301C487 301 473 301 459 301C445 301 431 301 417.2 301C403.3 301 389.7 301 375.8 301C362 301 348 301 334 301C320 301 306 301 292 301C278 301 264 301 250.2 301C236.3 301 222.7 301 208.8 301C195 301 181 301 167 301C153 301 139 301 125 301C111 301 97 301 83.2 301C69.3 301 55.7 301 41.8 301C28 301 14 301 7 301L0 301Z" fill="#ff0066"></path></svg>