<svg id="visual" viewBox="0 0 1920 1080" width="1920" height="1080" xmlns="http://www.w3.org/2000/svg" xmlns:xlink="http://www.w3.org/1999/xlink" version="1.1"><rect x="0" y="0" width="1920" height="1080" fill="#062932"></rect><g fill="#041d24"><circle r="124" cx="1558" cy="147"></circle><circle r="31" cx="1722" cy="698"></circle><circle r="59" cx="804" cy="351"></circle><circle r="92" cx="294" cy="591"></circle><circle r="69" cx="335" cy="834"></circle><circle r="58" cx="1202" cy="422"></circle><circle r="116" cx="1066" cy="756"></circle><circle r="100" cx="1310" cy="713"></circle><circle r="65" cx="783" cy="661"></circle><circle r="57" cx="583" cy="838"></circle><circle r="86" cx="452" cy="215"></circle><circle r="36" cx="565" cy="529"></circle><circle r="63" cx="1442" cy="938"></circle><circle r="78" cx="1487" cy="476"></circle><circle r="33" cx="1753" cy="353"></circle><circle r="68" cx="1149" cy="160"></circle><circle r="49" cx="190" cy="347"></circle><circle r="64" cx="869" cy="946"></circle></g></svg>