<svg id="visual" viewBox="0 0 960 300" width="960" height="300" xmlns="http://www.w3.org/2000/svg" xmlns:xlink="http://www.w3.org/1999/xlink" version="1.1"><path d="M0 55L14.5 68.5C29 82 58 109 87.2 113.5C116.3 118 145.7 100 174.8 98C204 96 233 110 262 117.5C291 125 320 126 349 125C378 124 407 121 436.2 112C465.3 103 494.7 88 523.8 77C553 66 582 59 611 66.5C640 74 669 96 698 97.5C727 99 756 80 785.2 81C814.3 82 843.7 103 872.8 109.5C902 116 931 108 945.5 104L960 100L960 0L945.5 0C931 0 902 0 872.8 0C843.7 0 814.3 0 785.2 0C756 0 727 0 698 0C669 0 640 0 611 0C582 0 553 0 523.8 0C494.7 0 465.3 0 436.2 0C407 0 378 0 349 0C320 0 291 0 262 0C233 0 204 0 174.8 0C145.7 0 116.3 0 87.2 0C58 0 29 0 14.5 0L0 0Z" fill="#001220"></path><path d="M0 76L14.5 92C29 108 58 140 87.2 149.5C116.3 159 145.7 146 174.8 145.5C204 145 233 157 262 160.5C291 164 320 159 349 154C378 149 407 144 436.2 138C465.3 132 494.7 125 523.8 116.5C553 108 582 98 611 102.5C640 107 669 126 698 126C727 126 756 107 785.2 107C814.3 107 843.7 126 872.8 132.5C902 139 931 133 945.5 130L960 127L960 98L945.5 102C931 106 902 114 872.8 107.5C843.7 101 814.3 80 785.2 79C756 78 727 97 698 95.5C669 94 640 72 611 64.5C582 57 553 64 523.8 75C494.7 86 465.3 101 436.2 110C407 119 378 122 349 123C320 124 291 123 262 115.5C233 108 204 94 174.8 96C145.7 98 116.3 116 87.2 111.5C58 107 29 80 14.5 66.5L0 53Z" fill="#172447"></path><path d="M0 163L14.5 170C29 177 58 191 87.2 191.5C116.3 192 145.7 179 174.8 184C204 189 233 212 262 217.5C291 223 320 211 349 204C378 197 407 195 436.2 189C465.3 183 494.7 173 523.8 162.5C553 152 582 141 611 146.5C640 152 669 174 698 174C727 174 756 152 785.2 152.5C814.3 153 843.7 176 872.8 183.5C902 191 931 183 945.5 179L960 175L960 125L945.5 128C931 131 902 137 872.8 130.5C843.7 124 814.3 105 785.2 105C756 105 727 124 698 124C669 124 640 105 611 100.5C582 96 553 106 523.8 114.5C494.7 123 465.3 130 436.2 136C407 142 378 147 349 152C320 157 291 162 262 158.5C233 155 204 143 174.8 143.5C145.7 144 116.3 157 87.2 147.5C58 138 29 106 14.5 90L0 74Z" fill="#4b2d66"></path><path d="M0 196L14.5 203C29 210 58 224 87.2 225C116.3 226 145.7 214 174.8 217C204 220 233 238 262 248C291 258 320 260 349 257.5C378 255 407 248 436.2 241.5C465.3 235 494.7 229 523.8 218.5C553 208 582 193 611 198.5C640 204 669 230 698 229C727 228 756 200 785.2 197C814.3 194 843.7 216 872.8 222.5C902 229 931 220 945.5 215.5L960 211L960 173L945.5 177C931 181 902 189 872.8 181.5C843.7 174 814.3 151 785.2 150.5C756 150 727 172 698 172C669 172 640 150 611 144.5C582 139 553 150 523.8 160.5C494.7 171 465.3 181 436.2 187C407 193 378 195 349 202C320 209 291 221 262 215.5C233 210 204 187 174.8 182C145.7 177 116.3 190 87.2 189.5C58 189 29 175 14.5 168L0 161Z" fill="#8a2b72"></path><path d="M0 301L14.5 301C29 301 58 301 87.2 301C116.3 301 145.7 301 174.8 301C204 301 233 301 262 301C291 301 320 301 349 301C378 301 407 301 436.2 301C465.3 301 494.7 301 523.8 301C553 301 582 301 611 301C640 301 669 301 698 301C727 301 756 301 785.2 301C814.3 301 843.7 301 872.8 301C902 301 931 301 945.5 301L960 301L960 209L945.5 213.5C931 218 902 227 872.8 220.5C843.7 214 814.3 192 785.2 195C756 198 727 226 698 227C669 228 640 202 611 196.5C582 191 553 206 523.8 216.5C494.7 227 465.3 233 436.2 239.5C407 246 378 253 349 255.5C320 258 291 256 262 246C233 236 204 218 174.8 215C145.7 212 116.3 224 87.2 223C58 222 29 208 14.5 201L0 194Z" fill="#c62368"></path></svg>