<svg id="visual" viewBox="0 0 960 300" width="960" height="300" xmlns="http://www.w3.org/2000/svg" xmlns:xlink="http://www.w3.org/1999/xlink" version="1.1"><rect x="0" y="0" width="960" height="300" fill="#001220"></rect><path d="M0 169L22.8 167.2C45.7 165.3 91.3 161.7 137 162.2C182.7 162.7 228.3 167.3 274 177.7C319.7 188 365.3 204 411.2 205.7C457 207.3 503 194.7 548.8 185C594.7 175.3 640.3 168.7 686 163.8C731.7 159 777.3 156 823 160.2C868.7 164.3 914.3 175.7 937.2 181.3L960 187L960 0L937.2 0C914.3 0 868.7 0 823 0C777.3 0 731.7 0 686 0C640.3 0 594.7 0 548.8 0C503 0 457 0 411.2 0C365.3 0 319.7 0 274 0C228.3 0 182.7 0 137 0C91.3 0 45.7 0 22.8 0L0 0Z" fill="#fa7268"></path><path d="M0 184L22.8 179.3C45.7 174.7 91.3 165.3 137 159.8C182.7 154.3 228.3 152.7 274 149.7C319.7 146.7 365.3 142.3 411.2 149.3C457 156.3 503 174.7 548.8 181.2C594.7 187.7 640.3 182.3 686 176.8C731.7 171.3 777.3 165.7 823 166.8C868.7 168 914.3 176 937.2 180L960 184L960 0L937.2 0C914.3 0 868.7 0 823 0C777.3 0 731.7 0 686 0C640.3 0 594.7 0 548.8 0C503 0 457 0 411.2 0C365.3 0 319.7 0 274 0C228.3 0 182.7 0 137 0C91.3 0 45.7 0 22.8 0L0 0Z" fill="#f46767"></path><path d="M0 113L22.8 121.7C45.7 130.3 91.3 147.7 137 152C182.7 156.3 228.3 147.7 274 138.5C319.7 129.3 365.3 119.7 411.2 123.8C457 128 503 146 548.8 147.7C594.7 149.3 640.3 134.7 686 128C731.7 121.3 777.3 122.7 823 123.7C868.7 124.7 914.3 125.3 937.2 125.7L960 126L960 0L937.2 0C914.3 0 868.7 0 823 0C777.3 0 731.7 0 686 0C640.3 0 594.7 0 548.8 0C503 0 457 0 411.2 0C365.3 0 319.7 0 274 0C228.3 0 182.7 0 137 0C91.3 0 45.7 0 22.8 0L0 0Z" fill="#ee5c67"></path><path d="M0 141L22.8 140.7C45.7 140.3 91.3 139.7 137 139.5C182.7 139.3 228.3 139.7 274 140.2C319.7 140.7 365.3 141.3 411.2 140.8C457 140.3 503 138.7 548.8 139.3C594.7 140 640.3 143 686 136.5C731.7 130 777.3 114 823 109.7C868.7 105.3 914.3 112.7 937.2 116.3L960 120L960 0L937.2 0C914.3 0 868.7 0 823 0C777.3 0 731.7 0 686 0C640.3 0 594.7 0 548.8 0C503 0 457 0 411.2 0C365.3 0 319.7 0 274 0C228.3 0 182.7 0 137 0C91.3 0 45.7 0 22.8 0L0 0Z" fill="#e75167"></path><path d="M0 122L22.8 120.8C45.7 119.7 91.3 117.3 137 113.5C182.7 109.7 228.3 104.3 274 105.5C319.7 106.7 365.3 114.3 411.2 115C457 115.7 503 109.3 548.8 104.2C594.7 99 640.3 95 686 93C731.7 91 777.3 91 823 94.3C868.7 97.7 914.3 104.3 937.2 107.7L960 111L960 0L937.2 0C914.3 0 868.7 0 823 0C777.3 0 731.7 0 686 0C640.3 0 594.7 0 548.8 0C503 0 457 0 411.2 0C365.3 0 319.7 0 274 0C228.3 0 182.7 0 137 0C91.3 0 45.7 0 22.8 0L0 0Z" fill="#df4667"></path><path d="M0 56L22.8 59.7C45.7 63.3 91.3 70.7 137 72.3C182.7 74 228.3 70 274 68.8C319.7 67.7 365.3 69.3 411.2 71.8C457 74.3 503 77.7 548.8 75.3C594.7 73 640.3 65 686 64.2C731.7 63.3 777.3 69.7 823 75.8C868.7 82 914.3 88 937.2 91L960 94L960 0L937.2 0C914.3 0 868.7 0 823 0C777.3 0 731.7 0 686 0C640.3 0 594.7 0 548.8 0C503 0 457 0 411.2 0C365.3 0 319.7 0 274 0C228.3 0 182.7 0 137 0C91.3 0 45.7 0 22.8 0L0 0Z" fill="#d73b67"></path><path d="M0 50L22.8 53.3C45.7 56.7 91.3 63.3 137 60.8C182.7 58.3 228.3 46.7 274 43.2C319.7 39.7 365.3 44.3 411.2 45.2C457 46 503 43 548.8 41.5C594.7 40 640.3 40 686 39.7C731.7 39.3 777.3 38.7 823 38.8C868.7 39 914.3 40 937.2 40.5L960 41L960 0L937.2 0C914.3 0 868.7 0 823 0C777.3 0 731.7 0 686 0C640.3 0 594.7 0 548.8 0C503 0 457 0 411.2 0C365.3 0 319.7 0 274 0C228.3 0 182.7 0 137 0C91.3 0 45.7 0 22.8 0L0 0Z" fill="#cf3068"></path><path d="M0 43L22.8 40.7C45.7 38.3 91.3 33.7 137 30.8C182.7 28 228.3 27 274 26.3C319.7 25.7 365.3 25.3 411.2 27.2C457 29 503 33 548.8 31.8C594.7 30.7 640.3 24.3 686 21.8C731.7 19.3 777.3 20.7 823 23C868.7 25.3 914.3 28.7 937.2 30.3L960 32L960 0L937.2 0C914.3 0 868.7 0 823 0C777.3 0 731.7 0 686 0C640.3 0 594.7 0 548.8 0C503 0 457 0 411.2 0C365.3 0 319.7 0 274 0C228.3 0 182.7 0 137 0C91.3 0 45.7 0 22.8 0L0 0Z" fill="#c62368"></path></svg>