<svg id="visual" viewBox="0 0 960 300" width="960" height="300" xmlns="http://www.w3.org/2000/svg" xmlns:xlink="http://www.w3.org/1999/xlink" version="1.1"><rect x="0" y="0" width="960" height="300" fill="#062932"></rect><path d="M0 77L96 77L96 79L192 79L192 44L288 44L288 52L384 52L384 75L480 75L480 69L576 69L576 31L672 31L672 64L768 64L768 49L864 49L864 70L960 70L960 37L960 301L960 301L864 301L864 301L768 301L768 301L672 301L672 301L576 301L576 301L480 301L480 301L384 301L384 301L288 301L288 301L192 301L192 301L96 301L96 301L0 301Z" fill="#062932"></path><path d="M0 79L96 79L96 91L192 91L192 97L288 97L288 111L384 111L384 109L480 109L480 111L576 111L576 99L672 99L672 74L768 74L768 76L864 76L864 86L960 86L960 82L960 301L960 301L864 301L864 301L768 301L768 301L672 301L672 301L576 301L576 301L480 301L480 301L384 301L384 301L288 301L288 301L192 301L192 301L96 301L96 301L0 301Z" fill="#003a43"></path><path d="M0 79L96 79L96 123L192 123L192 103L288 103L288 123L384 123L384 118L480 118L480 81L576 81L576 92L672 92L672 82L768 82L768 101L864 101L864 87L960 87L960 79L960 301L960 301L864 301L864 301L768 301L768 301L672 301L672 301L576 301L576 301L480 301L480 301L384 301L384 301L288 301L288 301L192 301L192 301L96 301L96 301L0 301Z" fill="#004d4f"></path><path d="M0 146L96 146L96 105L192 105L192 150L288 150L288 113L384 113L384 142L480 142L480 110L576 110L576 145L672 145L672 112L768 112L768 112L864 112L864 100L960 100L960 119L960 301L960 301L864 301L864 301L768 301L768 301L672 301L672 301L576 301L576 301L480 301L480 301L384 301L384 301L288 301L288 301L192 301L192 301L96 301L96 301L0 301Z" fill="#005f56"></path><path d="M0 158L96 158L96 167L192 167L192 135L288 135L288 147L384 147L384 130L480 130L480 160L576 160L576 132L672 132L672 152L768 152L768 157L864 157L864 161L960 161L960 153L960 301L960 301L864 301L864 301L768 301L768 301L672 301L672 301L576 301L576 301L480 301L480 301L384 301L384 301L288 301L288 301L192 301L192 301L96 301L96 301L0 301Z" fill="#007258"></path><path d="M0 172L96 172L96 158L192 158L192 185L288 185L288 151L384 151L384 146L480 146L480 175L576 175L576 189L672 189L672 151L768 151L768 156L864 156L864 154L960 154L960 164L960 301L960 301L864 301L864 301L768 301L768 301L672 301L672 301L576 301L576 301L480 301L480 301L384 301L384 301L288 301L288 301L192 301L192 301L96 301L96 301L0 301Z" fill="#1a8454"></path><path d="M0 199L96 199L96 184L192 184L192 193L288 193L288 196L384 196L384 193L480 193L480 185L576 185L576 175L672 175L672 182L768 182L768 182L864 182L864 186L960 186L960 204L960 301L960 301L864 301L864 301L768 301L768 301L672 301L672 301L576 301L576 301L480 301L480 301L384 301L384 301L288 301L288 301L192 301L192 301L96 301L96 301L0 301Z" fill="#47954c"></path><path d="M0 216L96 216L96 202L192 202L192 195L288 195L288 215L384 215L384 224L480 224L480 219L576 219L576 221L672 221L672 213L768 213L768 211L864 211L864 199L960 199L960 225L960 301L960 301L864 301L864 301L768 301L768 301L672 301L672 301L576 301L576 301L480 301L480 301L384 301L384 301L288 301L288 301L192 301L192 301L96 301L96 301L0 301Z" fill="#70a541"></path><path d="M0 224L96 224L96 236L192 236L192 242L288 242L288 226L384 226L384 223L480 223L480 233L576 233L576 224L672 224L672 235L768 235L768 224L864 224L864 216L960 216L960 230L960 301L960 301L864 301L864 301L768 301L768 301L672 301L672 301L576 301L576 301L480 301L480 301L384 301L384 301L288 301L288 301L192 301L192 301L96 301L96 301L0 301Z" fill="#9cb335"></path><path d="M0 244L96 244L96 266L192 266L192 251L288 251L288 248L384 248L384 242L480 242L480 260L576 260L576 242L672 242L672 255L768 255L768 254L864 254L864 265L960 265L960 240L960 301L960 301L864 301L864 301L768 301L768 301L672 301L672 301L576 301L576 301L480 301L480 301L384 301L384 301L288 301L288 301L192 301L192 301L96 301L96 301L0 301Z" fill="#ccbe2c"></path><path d="M0 265L96 265L96 280L192 280L192 281L288 281L288 279L384 279L384 263L480 263L480 268L576 268L576 262L672 262L672 280L768 280L768 264L864 264L864 277L960 277L960 272L960 301L960 301L864 301L864 301L768 301L768 301L672 301L672 301L576 301L576 301L480 301L480 301L384 301L384 301L288 301L288 301L192 301L192 301L96 301L96 301L0 301Z" fill="#ffc62f"></path></svg>